<svg width="114" height="20" viewBox="0 0 114 20" fill="none" xmlns="http://www.w3.org/2000/svg">
<path d="M10.5 1L12.6329 7.56434H19.535L13.9511 11.6213L16.084 18.1857L10.5 14.1287L4.91604 18.1857L7.04892 11.6213L1.46496 7.56434H8.36712L10.5 1Z" fill="#6B5023" fill-opacity="0.8" stroke="#3C3C3C" stroke-width="0.5"/>
<path d="M34 1L36.2451 7.56434H43.5106L37.6327 11.6213L39.8779 18.1857L34 14.1287L28.1221 18.1857L30.3673 11.6213L24.4894 7.56434H31.7549L34 1Z" fill="#6B5023" fill-opacity="0.8" stroke="#3C3C3C" stroke-width="0.5"/>
<path d="M57.5 1L59.6329 7.56434H66.535L60.9511 11.6213L63.084 18.1857L57.5 14.1287L51.916 18.1857L54.0489 11.6213L48.465 7.56434H55.3671L57.5 1Z" fill="#6B5023" fill-opacity="0.8" stroke="#3C3C3C" stroke-width="0.5"/>
<path d="M81 1L83.2451 7.56434H90.5106L84.6327 11.6213L86.8779 18.1857L81 14.1287L75.1221 18.1857L77.3673 11.6213L71.4894 7.56434H78.7549L81 1Z" fill="#6B5023" fill-opacity="0.8" stroke="#3C3C3C" stroke-width="0.5"/>
<path d="M104.5 2.61804L106.157 7.71885L106.27 8.06434H106.633H111.996L107.657 11.2168L107.363 11.4303L107.476 11.7758L109.133 16.8766L104.794 13.7242L104.5 13.5106L104.206 13.7242L99.8671 16.8766L101.524 11.7758L101.637 11.4303L101.343 11.2168L97.0038 8.06434H102.367H102.73L102.843 7.71885L104.5 2.61804Z" stroke="#3C3C3C"/>
</svg>
