<svg width="20" height="20" viewBox="0 0 20 20" fill="none" xmlns="http://www.w3.org/2000/svg">
<path d="M18.7308 10C18.7308 15.2654 14.6314 19.5 9.61539 19.5C4.5994 19.5 0.5 15.2654 0.5 10C0.5 4.73463 4.5994 0.5 9.61539 0.5C14.6314 0.5 18.7308 4.73463 18.7308 10Z" fill="white" stroke="black"/>
<path d="M15 15H13.2C13.0456 15 12.9228 14.9638 12.8316 14.8914C12.7474 14.8124 12.6772 14.7269 12.6211 14.6347L9.93684 10.7157C9.90877 10.8078 9.87719 10.9 9.8421 10.9921C9.81403 11.0777 9.77193 11.1566 9.71579 11.229L7.23158 14.6347C7.1614 14.7269 7.08421 14.8124 7 14.8914C6.92281 14.9638 6.81403 15 6.67368 15H5L8.73684 9.86673L5.14737 5H6.94737C7.10175 5 7.21404 5.02303 7.28421 5.0691C7.35439 5.11517 7.41754 5.18098 7.47368 5.26653L10.0947 9.01777C10.1509 8.82692 10.2386 8.64265 10.3579 8.46496L12.6526 5.30602C12.7158 5.21389 12.7825 5.14149 12.8526 5.08884C12.9298 5.02961 13.0211 5 13.1263 5H14.8526L11.2632 9.77789L15 15Z" fill="black"/>
</svg>
